<svg width="80" height="80" preserveAspectRatio="xMinYMin meet" viewBox="15.0 0.0 90.0 90.0" xmlns="http://www.w3.org/2000/svg" version="1.0" fill-rule="evenodd" xmlns:xlink="http://www.w3.org/1999/xlink"><title>...</title><desc>...</desc><g id="group" transform="scale(1,-1) translate(0,-90)" clip="0 0 120 90"><g transform=""><g transform=" matrix(1,0,0,-1,0,90)"><g transform=""><g transform=""><path d="M 21.72 52.9899 C 22.095 54.3949 22.695 54.9399 23.755 54.9399 C 24.855 54.9399 25.43 54.2799 25.43 52.9899 L 25.43 29.0199 L 32.325 29.0199 L 32.325 52.9899 C 32.325 56.3649 31.885 57.8299 30.175 59.5399 C 28.94 60.7799 26.66 61.7349 23.785 61.7349 C 21.465 61.7349 19.24 60.9649 17.825 59.5449 C 16.58 58.2949 15.895 57.0199 14.83 52.9899 L 10.6 37.0099 C 10.23 35.6049 9.63 35.0599 8.57 35.0599 C 7.47 35.0599 6.89 35.7199 6.89 37.0099 L 6.89 60.9799 L 0 60.9799 L 0 37.0099 C 0 33.6349 0.44 32.1699 2.15 30.4599 C 3.385 29.2199 5.665 28.2649 8.54 28.2649 C 10.86 28.2649 13.085 29.0349 14.5 30.4549 C 15.745 31.7049 16.425 32.9799 17.495 37.0099 L 21.72 52.9899 Z M 112.875 60.9799 L 104.92 36.0799 C 104.86 35.844 104.758 35.6206 104.62 35.4199 C 104.508 35.2837 104.365 35.1756 104.204 35.1044 C 104.042 35.0332 103.866 35.0009 103.69 35.0099 C 103.515 35.0016 103.34 35.0344 103.179 35.1056 C 103.018 35.1768 102.877 35.2844 102.765 35.4199 C 102.627 35.6205 102.525 35.844 102.465 36.0799 L 94.51 60.9799 L 87.385 60.9799 L 96.08 33.7799 C 96.53 32.3649 97.18 31.1599 98 30.3599 C 99.41 28.9849 101.07 28.2649 103.69 28.2649 C 106.315 28.2649 107.975 28.9849 109.385 30.3649 C 110.205 31.1649 110.855 32.3649 111.305 33.7799 L 120 60.9799 L 112.875 60.9799 Z M 77.655 60.9799 C 82.17 60.9799 84.375 60.0199 86.115 58.2899 C 88.04 56.3749 88.96 54.2799 88.96 51.1549 C 88.96 48.3899 87.95 45.8349 86.41 44.3049 C 84.395 42.3049 81.895 41.6699 77.815 41.6699 L 72.105 41.6699 C 69.925 41.6699 69.055 41.4049 68.365 40.7299 C 67.895 40.2649 67.67 39.5799 67.67 38.7649 C 67.67 37.9249 67.87 37.0949 68.45 36.5249 C 68.965 36.0249 69.665 35.7899 71.005 35.7899 L 87.51 35.7899 L 87.51 29.0199 L 72.265 29.0199 C 67.75 29.0199 65.55 29.9799 63.81 31.7099 C 61.885 33.6249 60.96 35.7199 60.96 38.8449 C 60.96 41.6099 61.975 44.1649 63.51 45.6949 C 65.53 47.6949 68.03 48.3299 72.11 48.3299 L 77.815 48.3299 C 80 48.3299 80.865 48.5949 81.555 49.2699 C 82.03 49.7349 82.255 50.4199 82.255 51.2349 C 82.255 52.0799 82.05 52.9099 81.47 53.4749 C 80.96 53.9749 80.26 54.2099 78.92 54.2099 L 61.895 54.2099 L 55.365 33.7799 C 54.915 32.3649 54.265 31.1599 53.445 30.3599 C 52.035 28.9849 50.37 28.2649 47.75 28.2649 C 45.13 28.2649 43.465 28.9849 42.06 30.3649 C 41.235 31.1649 40.59 32.3649 40.135 33.7799 L 31.445 60.9799 L 38.565 60.9799 L 46.525 36.0799 C 46.5855 35.844 46.687 35.6206 46.825 35.4199 C 46.9367 35.2844 47.0785 35.1768 47.239 35.1056 C 47.3996 35.0344 47.5746 35.0016 47.75 35.0099 C 48.16 35.0099 48.46 35.1499 48.68 35.4199 C 48.8181 35.6205 48.9197 35.8439 48.98 36.0799 L 56.935 60.9799 L 77.655 60.9799 Z " style="stroke: none; stroke-linecap: butt; stroke-width: 1; fill: rgb(100%,20%,16%); fill-rule: evenodd;"/></g></g></g></g></g></svg>